%
M48
M72
T01C0.03200
T02C0.03543
T03C0.03937
T04C0.04000
T05C0.04400
%
T01
X77600Y37540
X92600Y37540
X92600Y77540
X77600Y77540
X37600Y82540
X22600Y97540
X22600Y107540
X37600Y122540
T02
X23663Y22540
X31537Y22540
T03
X67600Y90099
X77600Y90099
X87600Y90099
X97600Y90099
X107600Y90099
X117600Y90099
X127600Y90099
X172600Y89035
X182600Y89035
X192600Y89035
X202600Y89035
X212600Y89035
X222600Y89035
X232600Y89035
X242600Y89035
T04
X242600Y120040
X232600Y120040
X222600Y120040
X212600Y120040
X202600Y120040
X192600Y120040
X182600Y120040
X172600Y120040
X162600Y120040
X152600Y120040
X142600Y120040
X132600Y120040
X122600Y120040
X112600Y120040
X102600Y120040
X92600Y120040
X82600Y120040
X72600Y120040
X62600Y120040
X62600Y22540
X72600Y22540
X82600Y22540
X92600Y22540
X102600Y22540
X112600Y22540
X122600Y22540
X132600Y22540
X142600Y22540
X152600Y22540
X162600Y22540
X172600Y22540
X182600Y22540
X192600Y22540
X202600Y22540
X212600Y22540
X222600Y22540
X232600Y22540
X242600Y22540
T05
X27600Y37540
X27600Y52540
X27600Y67540
M30
